<mxfile host="app.diagrams.net" modified="2021-08-28T19:07:39.171Z" agent="5.0 (Macintosh; Intel Mac OS X 10_15_7) AppleWebKit/537.36 (KHTML, like Gecko) Chrome/92.0.4515.159 Safari/537.36" etag="P_ehiKkRgcKhdb_JIdo6" version="15.0.3" type="github">
  <diagram id="gNRN_n5pOmOSGtr6cP9y" name="Page-1">
    <mxGraphModel dx="1088" dy="676" grid="0" gridSize="10" guides="1" tooltips="1" connect="1" arrows="1" fold="1" page="1" pageScale="1" pageWidth="827" pageHeight="1169" math="0" shadow="0">
      <root>
        <mxCell id="0" />
        <mxCell id="1" parent="0" />
        <mxCell id="POlyzkbUIhQz8TBEggOv-2" value="" style="rounded=1;whiteSpace=wrap;html=1;" vertex="1" parent="1">
          <mxGeometry x="24" y="58" width="788" height="684" as="geometry" />
        </mxCell>
        <mxCell id="POlyzkbUIhQz8TBEggOv-3" value="Region: IRELAND" style="text;html=1;strokeColor=none;fillColor=none;align=center;verticalAlign=middle;whiteSpace=wrap;rounded=0;" vertex="1" parent="1">
          <mxGeometry x="336" y="25" width="130" height="18" as="geometry" />
        </mxCell>
        <mxCell id="POlyzkbUIhQz8TBEggOv-5" value="" style="rounded=0;whiteSpace=wrap;html=1;" vertex="1" parent="1">
          <mxGeometry x="64" y="129" width="330" height="590" as="geometry" />
        </mxCell>
        <mxCell id="POlyzkbUIhQz8TBEggOv-6" value="" style="rounded=0;whiteSpace=wrap;html=1;" vertex="1" parent="1">
          <mxGeometry x="475" y="134" width="312" height="583" as="geometry" />
        </mxCell>
        <mxCell id="POlyzkbUIhQz8TBEggOv-7" value="" style="outlineConnect=0;dashed=0;verticalLabelPosition=bottom;verticalAlign=top;align=center;html=1;shape=mxgraph.aws3.route_53;fillColor=#F58536;gradientColor=none;" vertex="1" parent="1">
          <mxGeometry x="394" y="41" width="62" height="74.5" as="geometry" />
        </mxCell>
        <mxCell id="POlyzkbUIhQz8TBEggOv-8" value="AZ-1" style="text;html=1;strokeColor=none;fillColor=none;align=center;verticalAlign=middle;whiteSpace=wrap;rounded=0;" vertex="1" parent="1">
          <mxGeometry x="192" y="92" width="40" height="20" as="geometry" />
        </mxCell>
        <mxCell id="POlyzkbUIhQz8TBEggOv-9" value="AZ-2" style="text;html=1;strokeColor=none;fillColor=none;align=center;verticalAlign=middle;whiteSpace=wrap;rounded=0;" vertex="1" parent="1">
          <mxGeometry x="608" y="92" width="40" height="20" as="geometry" />
        </mxCell>
      </root>
    </mxGraphModel>
  </diagram>
</mxfile>
